#N canvas 707 141 958 998 10;
#X msg 49 107 close;
#X obj 33 20 tgl 15 0 empty empty empty 0 -6 0 8 -262144 -1 -1 0 1
;
#X text 152 134 port number 3 (on my macbook \, Yours might be a different
one);
#N canvas 1 81 958 470 make_my_list 0;
#X obj 18 44 sel 10 13;
#X obj 76 140 route d;
#X obj 18 21 inlet;
#X obj 76 162 outlet;
#X obj 76 96 sprintf %c%c%c%c%c%c%c%c%c%c%c%c%c%c%c%c%c%c%c%c%c%c%c%c%c%c%c%c%c%c%c%c%c%c%c%c%c%c%c%c%c%c%c%c%c%c%c
;
#X obj 76 74 zl group 62;
#X text 207 140 do You know how to make this more elegant?;
#X text 207 153 in max i would use [itoa].;
#X connect 0 1 5 0;
#X connect 0 2 5 0;
#X connect 1 0 3 0;
#X connect 2 0 0 0;
#X connect 4 0 1 0;
#X connect 5 0 4 0;
#X restore 33 156 pd make_my_list;
#X obj 33 182 unpack f f f f f f f f f f f f f f f f f;
#X floatatom 33 305 5 0 0 0 - - -, f 5;
#X floatatom 50 290 5 0 0 0 - - -, f 5;
#X floatatom 67 275 5 0 0 0 - - -, f 5;
#X floatatom 84 260 5 0 0 0 - - -, f 5;
#X floatatom 101 245 5 0 0 0 - - -, f 5;
#X floatatom 118 230 5 0 0 0 - - -, f 5;
#X obj 170 208 tgl 15 0 empty empty empty 0 -6 0 8 -262144 -1 -1 0
1;
#X obj 187 208 tgl 15 0 empty empty empty 0 -6 0 8 -262144 -1 -1 0
1;
#X obj 136 208 tgl 15 0 empty empty empty 0 -6 0 8 -262144 -1 -1 0
1;
#X obj 153 208 tgl 15 0 empty empty empty 0 -6 0 8 -262144 -1 -1 0
1;
#X obj 239 208 tgl 15 0 empty empty empty 0 -6 0 8 -262144 -1 -1 0
1;
#X obj 256 208 tgl 15 0 empty empty empty 0 -6 0 8 -262144 -1 -1 0
1;
#X obj 204 208 tgl 15 0 empty empty empty 0 -6 0 8 -262144 -1 -1 0
1;
#X obj 222 208 tgl 15 0 empty empty empty 0 -6 0 8 -262144 -1 -1 0
1;
#X obj 308 208 tgl 15 0 empty empty empty 0 -6 0 8 -262144 -1 -1 0
1;
#X obj 273 208 tgl 15 0 empty empty empty 0 -6 0 8 -262144 -1 -1 0
1;
#X obj 290 208 tgl 15 0 empty empty empty 0 -6 0 8 -262144 -1 -1 0
1;
#X text 75 305 analog in 0;
#X text 92 290 analog in 1;
#X text 109 275 analog in 2;
#X text 126 260 analog in 3;
#X text 143 245 analog in 4;
#X text 160 230 analog in 5;
#X text 326 209 digital in 2 - 12;
#X text 52 19 start polling;
#X text 481 22 have fun!;
#X msg 33 64 114 \, 32 \, 100 \, 13;
#X text 154 65 the "poll" command;
#X msg 49 87 open 0;
#X obj 33 134 comport 0 9600;
#X obj 33 42 metro 50;
#X obj 32 337 s a1;
#X obj 49 320 s a2;
#X connect 0 0 34 0;
#X connect 1 0 35 0;
#X connect 3 0 4 0;
#X connect 4 0 5 0;
#X connect 4 1 6 0;
#X connect 4 2 7 0;
#X connect 4 3 8 0;
#X connect 4 4 9 0;
#X connect 4 5 10 0;
#X connect 4 6 13 0;
#X connect 4 7 14 0;
#X connect 4 8 11 0;
#X connect 4 9 12 0;
#X connect 4 10 17 0;
#X connect 4 11 18 0;
#X connect 4 12 15 0;
#X connect 4 13 16 0;
#X connect 4 14 20 0;
#X connect 4 15 21 0;
#X connect 4 16 19 0;
#X connect 5 0 36 0;
#X connect 6 0 37 0;
#X connect 31 0 34 0;
#X connect 33 0 34 0;
#X connect 34 0 3 0;
#X connect 35 0 31 0;
