#N canvas 416 92 958 998 10;
#X obj 111 177 moses 1024;
#X floatatom 111 248 5 0 0 0 - - -, f 5;
#X obj 201 177 moses 0;
#X floatatom 200 248 5 0 0 0 - - -, f 5;
#X msg 113 30 1024;
#X obj 306 41 bng 15 250 50 0 empty empty empty 17 7 0 10 -262144 -1
-1;
#X msg 201 31 0;
#X obj 325 41 tgl 15 0 empty empty empty 17 7 0 10 -262144 -1 -1 0
1;
#X obj 26 55 delay 5000;
#X obj 201 138 spigot;
#X obj 111 138 spigot;
#X obj 92 325 - 0;
#X obj 160 324 - 0;
#X obj 122 351 /;
#X obj 92 377 * 1;
#X floatatom 122 453 5 0 0 0 - - -, f 5;
#X obj 92 404 clip 0 127;
#X obj 410 42 vsl 15 50 0 127 0 0 empty empty empty 0 -9 0 10 -262144
-1 -1 9900 1;
#X floatatom 122 334 5 0 0 0 - - -, f 5;
#X obj 122 316 t b;
#X obj 122 429 -;
#X floatatom 91 468 5 0 0 0 - - -, f 5;
#X obj 336 374 spigot;
#X floatatom 372 81 5 0 0 0 - - -, f 5;
#X obj 391 41 tgl 15 0 empty empty empty 17 7 0 10 -262144 -1 -1 0
1;
#X obj 418 307 tgl 15 0 empty empty empty 17 7 0 10 -262144 -1 -1 1
1;
#X obj 418 329 delay 1;
#X obj 381 374 spigot;
#X obj 374 280 loadbang;
#X floatatom 373 63 5 0 0 0 - - -, f 5;
#X text 303 62 max output;
#X text 364 41 rev;
#X text 328 80 output;
#X obj 353 43 cnv 7 10 10 empty empty empty 20 12 0 14 -203904 -66577
0;
#X msg 410 3 127;
#X obj 68 109 inlet;
#X obj 9 219 outlet;
#X obj 261 6 inlet;
#X msg 175 158 1024;
#X msg 245 159 0;
#X connect 0 0 1 0;
#X connect 1 0 0 1;
#X connect 1 0 11 1;
#X connect 1 0 12 1;
#X connect 2 1 3 0;
#X connect 3 0 2 1;
#X connect 3 0 12 0;
#X connect 4 0 1 0;
#X connect 5 0 4 0;
#X connect 5 0 6 0;
#X connect 5 0 7 0;
#X connect 5 0 8 0;
#X connect 5 0 38 0;
#X connect 5 0 39 0;
#X connect 6 0 3 0;
#X connect 7 0 10 1;
#X connect 7 0 9 1;
#X connect 8 0 7 0;
#X connect 9 0 2 0;
#X connect 10 0 0 0;
#X connect 11 0 14 0;
#X connect 12 0 13 1;
#X connect 13 0 14 1;
#X connect 14 0 16 0;
#X connect 15 0 27 0;
#X connect 16 0 20 1;
#X connect 16 0 21 0;
#X connect 17 0 18 0;
#X connect 17 0 16 2;
#X connect 17 0 29 0;
#X connect 18 0 13 0;
#X connect 18 0 20 0;
#X connect 19 0 18 0;
#X connect 20 0 15 0;
#X connect 21 0 22 0;
#X connect 22 0 23 0;
#X connect 23 0 36 0;
#X connect 24 0 22 1;
#X connect 24 0 25 0;
#X connect 24 0 26 0;
#X connect 25 0 27 1;
#X connect 26 0 25 0;
#X connect 27 0 23 0;
#X connect 28 0 24 0;
#X connect 28 0 34 0;
#X connect 34 0 17 0;
#X connect 35 0 10 0;
#X connect 35 0 9 0;
#X connect 35 0 11 0;
#X connect 35 0 19 0;
#X connect 37 0 5 0;
#X connect 38 0 0 1;
#X connect 39 0 2 1;
#X coords 0 -1 1 1 130 75 1 300 25;
