#N canvas 961 81 958 998 10;
#X obj 50 110 cnv 7 350 150 empty empty empty 20 12 0 14 -162280 -66577
0;
#X obj 57 127 planciaElement;
#X obj 57 81 r a1;
#X obj 222 82 r a2;
#X text 109 111 analog 1;
#X text 271 111 analog 2;
#X obj 222 272 ctlout 2 2;
#X obj 57 272 ctlout 1 2;
#X obj 178 27 bng 15 250 50 0 empty empty empty 17 7 0 10 -262144 -1
-1;
#X text 203 29 calibra tutti;
#X obj 222 127 planciaElement;
#X obj 57 294 vsl 15 64 0 127 0 0 empty empty empty 0 -9 0 10 -262144
-1 -1 0 1;
#X obj 222 296 vsl 15 64 0 127 0 0 empty empty empty 0 -9 0 10 -262144
-1 -1 0 1;
#X connect 1 0 7 0;
#X connect 1 0 11 0;
#X connect 2 0 1 0;
#X connect 3 0 10 0;
#X connect 8 0 10 1;
#X connect 8 0 1 1;
#X connect 10 0 6 0;
#X connect 10 0 12 0;
#X coords 0 -1 1 1 350 150 2 50 110;
