#N canvas 14 81 1905 998 10;
#X obj 21 243 spigot;
#X obj 50 110 cnv 7 150 125 empty empty empty 20 12 0 14 -203904 -66577
0;
#X obj 59 119 tgl 15 0 empty empty empty 17 7 0 10 -262144 -1 -1 0
1;
#X obj 60 144 calibra;
#X obj 61 67 inlet;
#X obj 20 273 outlet;
#X obj 186 66 inlet;
#X text 79 120 SEND MIDI;
#X connect 0 0 5 0;
#X connect 2 0 0 1;
#X connect 3 0 0 0;
#X connect 4 0 3 0;
#X connect 6 0 3 1;
#X coords 0 -1 1 1 150 125 2 50 110;
